<?xml version="1.0" encoding="UTF-8" standalone="no"?>
<!-- Created with Inkscape (http://www.inkscape.org/) -->

<svg
   xmlns:dc="http://purl.org/dc/elements/1.1/"
   xmlns:cc="http://creativecommons.org/ns#"
   xmlns:rdf="http://www.w3.org/1999/02/22-rdf-syntax-ns#"
   xmlns:svg="http://www.w3.org/2000/svg"
   xmlns="http://www.w3.org/2000/svg"
   xmlns:sodipodi="http://sodipodi.sourceforge.net/DTD/sodipodi-0.dtd"
   xmlns:inkscape="http://www.inkscape.org/namespaces/inkscape"
   width="64px"
   height="64px"
   id="svg2816"
   version="1.1"
   inkscape:version="0.47 r22583"
   sodipodi:docname="spidertemplate.svg">
  <defs
     id="defs2818">
    <inkscape:perspective
       sodipodi:type="inkscape:persp3d"
       inkscape:vp_x="0 : 32 : 1"
       inkscape:vp_y="0 : 1000 : 0"
       inkscape:vp_z="64 : 32 : 1"
       inkscape:persp3d-origin="32 : 21.333333 : 1"
       id="perspective2824" />
    <inkscape:perspective
       id="perspective2856"
       inkscape:persp3d-origin="0.5 : 0.33333333 : 1"
       inkscape:vp_z="1 : 0.5 : 1"
       inkscape:vp_y="0 : 1000 : 0"
       inkscape:vp_x="0 : 0.5 : 1"
       sodipodi:type="inkscape:persp3d" />
    <inkscape:perspective
       id="perspective2878"
       inkscape:persp3d-origin="0.5 : 0.33333333 : 1"
       inkscape:vp_z="1 : 0.5 : 1"
       inkscape:vp_y="0 : 1000 : 0"
       inkscape:vp_x="0 : 0.5 : 1"
       sodipodi:type="inkscape:persp3d" />
    <inkscape:perspective
       id="perspective2909"
       inkscape:persp3d-origin="0.5 : 0.33333333 : 1"
       inkscape:vp_z="1 : 0.5 : 1"
       inkscape:vp_y="0 : 1000 : 0"
       inkscape:vp_x="0 : 0.5 : 1"
       sodipodi:type="inkscape:persp3d" />
  </defs>
  <sodipodi:namedview
     id="base"
     pagecolor="#ffffff"
     bordercolor="#666666"
     borderopacity="1.0"
     inkscape:pageopacity="0.0"
     inkscape:pageshadow="2"
     inkscape:zoom="5.5"
     inkscape:cx="32"
     inkscape:cy="31.636364"
     inkscape:current-layer="layer1"
     showgrid="true"
     inkscape:document-units="px"
     inkscape:grid-bbox="true"
     inkscape:window-width="1360"
     inkscape:window-height="693"
     inkscape:window-x="0"
     inkscape:window-y="25"
     inkscape:window-maximized="1" />
  <metadata
     id="metadata2821">
    <rdf:RDF>
      <cc:Work
         rdf:about="">
        <dc:format>image/svg+xml</dc:format>
        <dc:type
           rdf:resource="http://purl.org/dc/dcmitype/StillImage" />
        <dc:title />
      </cc:Work>
    </rdf:RDF>
  </metadata>
  <g
     id="layer1"
     inkscape:label="Layer 1"
     inkscape:groupmode="layer">
    <path
       style="fill:#ff8080"
       d="m 7.154085,64.197055 c 0,-0.238188 0.1209868,-0.73221 0.2688588,-1.097829 0.7658793,-1.893666 1.1529356,-2.685649 1.4909236,-3.050691 0.264704,-0.285893 0.413029,-1.169583 0.511195,-3.04559 0.105757,-2.020981 0.255794,-2.855748 0.6376606,-3.54769 0.274653,-0.497669 0.562424,-1.103245 0.639493,-1.345725 0.07707,-0.242481 0.370363,-0.681881 0.651762,-0.976444 0.281399,-0.294563 0.513158,-0.708906 0.515013,-0.920759 0.0036,-0.404972 0.634903,-1.555257 1.572039,-2.864159 0.306798,-0.428508 0.653227,-0.938467 0.76984,-1.133244 0.11661,-0.194775 0.696731,-0.892598 1.289151,-1.550714 l 1.077124,-1.196577 0.0057,-2.061496 c 0.0049,-1.746929 0.08475,-2.155721 0.523503,-2.679 0.284765,-0.339628 0.517754,-0.702399 0.517754,-0.806159 0,-0.289606 0.512268,-0.396066 1.137404,-0.236377 0.31019,0.07924 0.917348,0.219494 1.349237,0.311681 0.484295,0.103377 1.387177,0.60236 2.355767,1.301937 0.863781,0.623877 2.041663,1.475789 2.617516,1.893135 0.575853,0.417349 1.630857,1.001255 2.344449,1.297571 1.945382,0.80781 5.638978,2.880311 5.638978,3.16407 0,0.05684 0.400059,0.268474 0.889019,0.470307 0.569303,0.234996 1.039968,0.606722 1.308758,1.033635 0.462828,0.735098 0.576137,2.599371 0.157989,2.599371 -0.143963,0 -0.261751,-0.06517 -0.261751,-0.14482 0,-0.07965 -0.472088,-0.42199 -1.049086,-0.760753 -0.73207,-0.429818 -1.328807,-0.640499 -1.974851,-0.697235 -0.524788,-0.04609 -1.459232,-0.319834 -2.157372,-0.632005 -0.677374,-0.302884 -1.43772,-0.59128 -1.689655,-0.640878 -0.251937,-0.04959 -0.458066,-0.183564 -0.458066,-0.2977 0,-0.121009 -0.299715,-0.226204 -0.71893,-0.252341 -0.77512,-0.04833 -1.358645,-0.537074 -1.913891,-1.603032 -0.162332,-0.311641 -0.459473,-0.666421 -0.660317,-0.788399 -0.200842,-0.121973 -0.440185,-0.424768 -0.531872,-0.672863 -0.0917,-0.248097 -0.251123,-0.451085 -0.354304,-0.451085 -0.23276,0 -0.793968,-0.987858 -0.793968,-1.397574 0,-0.256671 -0.15325,-0.30229 -1.015476,-0.30229 -0.883254,0 -1.138868,0.08149 -1.963138,0.625875 -0.521213,0.344232 -0.947662,0.728622 -0.947662,0.854201 0,0.125579 -0.29447,0.606952 -0.654379,1.06972 -0.57429,0.738418 -0.65438,1.047784 -0.65438,2.527718 0,1.136854 -0.127939,1.882556 -0.392627,2.288563 -0.215945,0.331233 -0.392627,0.805133 -0.392627,1.053112 0,0.247978 -0.338561,0.957094 -0.752356,1.575812 -0.643829,0.962673 -0.778984,1.424642 -0.936965,3.202604 -0.130979,1.474071 -0.0968,2.166462 0.117674,2.383331 0.424344,0.429098 0.08394,1.34271 -0.684382,1.836868 -0.350044,0.225132 -0.612229,0.461963 -0.582637,0.526292 0.06887,0.149722 -0.784042,0.958438 -1.545671,1.465573 -0.323918,0.215681 -0.588942,0.465363 -0.588942,0.554848 0,0.08949 -0.457444,0.494625 -1.016542,0.900311 -0.559097,0.405687 -1.2208386,0.96072 -1.4705336,1.233406 -0.597114,0.652091 -1.6635032,1.416553 -1.9760231,1.416553 -0.1366359,0 -0.2484306,-0.19488 -0.2484306,-0.433065 z"
       id="path2935" />
    <path
       style="fill:#ff0000"
       d="m 1.1761951,64.326346 c -0.012157,-0.223812 0.07387,-0.676877 0.1911733,-1.006808 0.7403175,-2.082222 1.0302599,-2.758636 1.340735,-3.127849 0.2481838,-0.295134 0.3494309,-1.156628 0.3489481,-2.969096 -5.204e-4,-1.952532 0.1049859,-2.767083 0.4484087,-3.46178 0.2469999,-0.499652 0.5014014,-1.104126 0.5653367,-1.34327 0.063925,-0.239145 0.3325119,-0.684144 0.5968374,-0.988888 0.264325,-0.304742 0.4730415,-0.720967 0.463813,-0.924947 -0.017611,-0.38992 0.5498204,-1.544524 1.4129512,-2.874914 0.2825712,-0.435544 0.6002786,-0.952459 0.7060146,-1.148701 0.1057348,-0.196245 0.645922,-0.911623 1.2004083,-1.58973 l 1.008159,-1.232927 -0.102121,-1.983927 c -0.08645,-1.681205 -0.02844,-2.080583 0.380348,-2.617307 0.2653136,-0.348358 0.4779516,-0.715058 0.4725286,-0.814891 -0.01516,-0.278648 0.48851,-0.4199 1.118272,-0.313623 0.312485,0.05273 0.923358,0.141682 1.357494,0.197654 0.486819,0.06272 1.410403,0.474457 2.409793,1.07417 0.891249,0.534821 2.106647,1.265244 2.700887,1.623167 0.594241,0.357925 1.673484,0.839793 2.398315,1.070826 1.903744,0.606798 5.754893,2.341498 5.770247,2.599133 0.0027,0.04483 0.459648,0.266034 1.015499,0.491577 1.237247,0.502024 1.690652,1.146069 1.7426,2.475282 0.03281,0.839226 -0.01481,0.967209 -0.284971,0.765989 -0.836743,-0.623231 -2.492718,-1.253353 -3.161283,-1.202917 -0.426427,0.03218 -1.237008,-0.132952 -2.113555,-0.430561 -0.782016,-0.265508 -1.628912,-0.506952 -1.881992,-0.536543 -0.25308,-0.02959 -0.465029,-0.14365 -0.470995,-0.253472 -0.0063,-0.116429 -0.309755,-0.194936 -0.727839,-0.188317 -0.77303,0.01223 -1.378627,-0.413803 -1.986289,-1.397357 -0.177652,-0.28755 -0.491571,-0.606389 -0.697596,-0.708535 -0.206023,-0.102139 -0.459768,-0.375338 -0.563877,-0.607103 -0.104112,-0.231763 -0.273209,-0.414989 -0.375774,-0.407169 -0.231375,0.01763 -0.840879,-0.890321 -0.862297,-1.284535 -0.01337,-0.246962 -0.168144,-0.27924 -1.025231,-0.21391 -0.877991,0.06693 -1.127822,0.164709 -1.918725,0.750957 -0.500113,0.370703 -0.903929,0.772864 -0.897364,0.893692 0.0066,0.120824 -0.260988,0.606303 -0.594562,1.078833 -0.532268,0.753996 -0.595709,1.057724 -0.518346,2.481667 0.05943,1.093842 -0.02877,1.821027 -0.27063,2.23173 -0.197345,0.335065 -0.348201,0.804424 -0.335238,1.043018 0.01292,0.238602 -0.2865126,0.946539 -0.6655006,1.573205 -0.58967,0.975036 -0.69987,1.429764 -0.763969,3.152431 -0.05314,1.428223 0.01703,2.091826 0.241567,2.28424 0.444245,0.380709 0.153631,1.285549 -0.5842867,1.819229 -0.3361886,0.243139 -0.5844323,0.490878 -0.5516542,0.550531 0.076288,0.138836 -0.729269,0.981585 -1.4598524,1.527244 -0.3107138,0.232067 -0.5607244,0.499421 -0.5555797,0.594119 0.00515,0.0947 -0.4282185,0.519159 -0.9630307,0.943247 C 4.19915,62.343299 3.5699824,62.920437 3.3358101,63.201745 2.7755152,63.874817 1.7557063,64.690799 1.4452142,64.714467 1.3093907,64.724817 1.1883125,64.550172 1.176153,64.326361 z"
       id="path2937" />
    <path
       style="fill:#ff8080"
       d="m 54.739408,62.895076 c -0.258351,-0.130974 -0.874702,-0.579845 -1.369664,-0.997491 -0.494964,-0.417646 -1.303839,-1.008947 -1.797508,-1.314006 -0.493663,-0.305059 -0.901207,-0.609362 -0.905648,-0.676234 -0.0044,-0.06687 -0.555839,-0.498443 -1.225336,-0.95905 -0.669496,-0.460607 -1.154632,-0.876939 -1.078086,-0.92518 0.07655,-0.04825 -0.17095,-0.259261 -0.549994,-0.468932 -0.823031,-0.455266 -1.231452,-1.34053 -0.83157,-1.802445 0.199628,-0.230603 0.187878,-0.923735 -0.04045,-2.385893 -0.275403,-1.763594 -0.440861,-2.215594 -1.147044,-3.133505 -0.453866,-0.589951 -0.838654,-1.275083 -0.85508,-1.522519 -0.0164,-0.247435 -0.224114,-0.708591 -0.461521,-1.024791 -0.291006,-0.387583 -0.468052,-1.123174 -0.543353,-2.257532 -0.09803,-1.476685 -0.198439,-1.780065 -0.820375,-2.478823 -0.389769,-0.43791 -0.715056,-0.892347 -0.722857,-1.009862 -0.0077,-0.117513 -0.414972,-0.471766 -0.904825,-0.787227 -0.806717,-0.519519 -0.9953,-0.567447 -2.001227,-0.508627 -0.964667,0.05642 -1.107953,0.104545 -1.090558,0.366561 0.02896,0.436203 -0.474281,1.432135 -0.7323,1.449261 -0.120905,0.0081 -0.212869,0.11955 -0.204357,0.247826 0.0085,0.12828 -0.245656,0.576375 -0.564825,0.995772 -0.319168,0.419401 -0.771071,1.062693 -1.004226,1.42954 -0.567557,0.892991 -0.777731,1.045398 -1.508547,1.093912 -0.383507,0.02546 -0.615467,0.12399 -0.606592,0.257673 0.008,0.119051 -0.188566,0.271413 -0.436598,0.338585 -0.248042,0.06712 -1.060534,0.438532 -1.805559,0.825243 -0.835086,0.433455 -1.620849,0.721002 -2.04885,0.749762 -0.48046,0.03228 -1.02323,0.263028 -1.762508,0.74927 -0.587539,0.386438 -1.063834,0.76917 -1.058434,0.850515 0.0054,0.08134 -0.107714,0.155702 -0.251357,0.165244 -0.150333,0.01 -0.288962,-0.417628 -0.326653,-1.007578 -0.05032,-0.788283 0.07058,-1.206024 0.523638,-1.809353 0.324013,-0.431437 0.697045,-0.791599 0.82896,-0.800356 0.131912,-0.0088 1.161534,-0.711596 2.288044,-1.561867 1.126508,-0.850271 2.355679,-1.677448 2.731491,-1.838179 1.369689,-0.585791 3.07092,-1.579459 3.68154,-2.150341 1.597786,-1.493799 4.470026,-3.564603 5.122532,-3.693197 0.375781,-0.07404 0.82453,-0.2063 0.997247,-0.293764 0.402757,-0.20409 1.111078,-0.107769 1.128431,0.15351 0.0073,0.110566 0.264228,0.462852 0.570862,0.78287 0.471288,0.491854 0.579241,0.89558 0.697928,2.610136 l 0.140361,2.028286 1.151847,1.151175 c 0.633516,0.633147 1.25943,1.303748 1.390916,1.490223 0.131479,0.18648 0.512756,0.672247 0.847265,1.079493 0.993385,1.209387 1.727448,2.345816 1.75863,2.722598 0.01604,0.19414 0.339403,0.651811 0.718518,1.017055 0.379118,0.365243 0.700767,0.781169 0.714781,0.924281 0.01401,0.143113 0.279705,0.668498 0.590431,1.167525 0.429912,0.690444 0.639797,1.534197 0.878065,3.529896 0.223834,1.874822 0.432865,2.751454 0.733107,3.074608 1.127183,1.213187 2.44848,4.388958 1.827666,4.392825 -0.108165,6.77e-4 -0.408045,-0.105942 -0.666397,-0.236914 l 0,0 z"
       id="path2945" />
    <path
       style="fill:#ff0000"
       d="m 62.687027,63.813498 c -0.249106,-0.1478 -0.834373,-0.636511 -1.300582,-1.086026 -0.46621,-0.449513 -1.234149,-1.093095 -1.706519,-1.430183 -0.47238,-0.337087 -0.85887,-0.667717 -0.85887,-0.734737 0,-0.06701 -0.521608,-0.534167 -1.159125,-1.038109 -0.637511,-0.503942 -1.094008,-0.951493 -1.014436,-0.994559 0.07958,-0.04307 -0.153396,-0.270015 -0.517722,-0.504333 -0.791064,-0.508781 -1.13995,-1.419153 -0.710348,-1.853569 0.214464,-0.216871 0.248646,-0.909261 0.117672,-2.383332 -0.157983,-1.777963 -0.293135,-2.23993 -0.936963,-3.202602 -0.413798,-0.618719 -0.752356,-1.327834 -0.752356,-1.575813 0,-0.24798 -0.176684,-0.721879 -0.39263,-1.053112 -0.264698,-0.406007 -0.392631,-1.151709 -0.392631,-2.288563 0,-1.479937 -0.08009,-1.789302 -0.654378,-2.527717 -0.359909,-0.462769 -0.65438,-0.937755 -0.65438,-1.055528 0,-0.117768 -0.382813,-0.498215 -0.850694,-0.845433 -0.770528,-0.571811 -0.955521,-0.632127 -1.963136,-0.640068 -0.966287,-0.0076 -1.112446,0.03094 -1.112446,0.29352 0,0.437162 -0.568099,1.397575 -0.826688,1.397575 -0.121173,0 -0.220318,0.105182 -0.220318,0.233744 0,0.128558 -0.283295,0.558837 -0.629543,0.956173 -0.34625,0.397338 -0.839769,1.009283 -1.096713,1.359881 -0.625458,0.853436 -0.845266,0.991586 -1.57769,0.991586 -0.38435,0 -0.622329,0.08296 -0.622329,0.216929 0,0.119315 -0.206131,0.258326 -0.458067,0.308921 -0.251936,0.0506 -1.087251,0.36732 -1.856256,0.703831 -0.861964,0.377189 -1.665049,0.612055 -2.094014,0.612404 -0.48154,3.93e-4 -1.038404,0.194673 -1.808266,0.630879 -0.611846,0.346674 -1.112445,0.697016 -1.112445,0.778539 0,0.08152 -0.11779,0.148224 -0.261752,0.148224 -0.150667,0 -0.260666,-0.435846 -0.259194,-1.026999 0.002,-0.789885 0.150271,-1.198707 0.642337,-1.770693 0.351879,-0.409029 0.747948,-0.743689 0.880151,-0.743689 0.132203,0 1.206119,-0.633098 2.386474,-1.406881 1.180356,-0.773785 2.46162,-1.51773 2.847252,-1.653213 1.405482,-0.49378 3.168797,-1.372579 3.81589,-1.90176 1.693222,-1.384685 4.696322,-3.260688 5.355914,-3.345778 0.379861,-0.049 0.836393,-0.151185 1.014513,-0.227069 0.415391,-0.176967 1.115778,-0.03389 1.115778,0.227948 0,0.110795 0.232989,0.479337 0.517755,0.818963 0.437669,0.521991 0.518645,0.931981 0.523502,2.650634 l 0.0057,2.033129 1.073071,1.224944 c 0.590183,0.673719 1.170298,1.384306 1.289148,1.579083 0.118839,0.194775 0.467099,0.704734 0.7739,1.133242 0.911091,1.272531 1.568274,2.455086 1.574435,2.833106 0.0031,0.194776 0.295475,0.672863 0.64957,1.062417 0.354081,0.389552 0.647478,0.825869 0.651982,0.969596 0.0044,0.143726 0.234809,0.685557 0.511797,1.20407 0.383237,0.717405 0.536771,1.573205 0.642328,3.580303 0.09916,1.885534 0.249664,2.774087 0.52784,3.116418 1.044347,1.285185 2.152385,4.541502 1.532676,4.504238 -0.107969,-0.0064 -0.400133,-0.132733 -0.649244,-0.280531 l 0,0 z"
       id="path2939" />
    <path
       style="fill:#2b0000"
       d="m 26.072139,50.213875 c -1.176213,-0.41676 -3.212952,-2.265489 -3.212952,-2.916364 0,-0.63821 0.668063,-2.072605 1.3102,-2.813115 0.270241,-0.311642 0.57061,-0.743409 0.667489,-0.959479 0.29365,-0.654941 1.006294,-0.811214 3.699333,-0.811214 2.481804,0 2.891825,0.05766 5.789694,0.813942 1.005929,0.262531 1.524286,0.5058 1.878568,0.881623 0.269111,0.285475 0.670136,0.600271 0.891167,0.699544 0.785546,0.352822 1.468837,1.666183 1.465076,2.81604 -0.0049,1.488636 -0.132532,1.664707 -1.530398,2.110631 -1.17514,0.374876 -1.358344,0.388865 -5.6642,0.432461 -4.163983,0.04216 -4.503998,0.02584 -5.293977,-0.254069 z"
       id="path2949" />
  </g>
</svg>
